<svg width="48" height="48" viewBox="0 0 48 48" fill="none" xmlns="http://www.w3.org/2000/svg">
<mask id="mask0_24_542" style="mask-type:alpha" maskUnits="userSpaceOnUse" x="0" y="0" width="48" height="48">
<rect width="48" height="48" fill="#fff"/>
</mask>
<g mask="url(#mask0_24_542)">
<path d="M5.65 19.8294C5.65 17.0645 6.22663 14.4441 7.3799 11.9682C8.53313 9.4923 10.1797 7.37645 12.3196 5.62065L14.5489 8.06195C12.7663 9.51922 11.3833 11.2723 10.4 13.3212C9.41667 15.3701 8.925 17.5395 8.925 19.8294H5.65ZM39.125 19.8294C39.125 17.5388 38.6583 15.3692 37.725 13.3207C36.7917 11.2721 35.4337 9.51922 33.6511 8.06195L35.8805 5.62065C37.995 7.40182 39.6102 9.52305 40.7261 11.9844C41.842 14.4457 42.4 17.0607 42.4 19.8294H39.125ZM7.48585 38.2631V34.8446H11.7934V19.8794C11.7934 17.0069 12.6344 14.4414 14.3163 12.1827C15.9982 9.92392 18.225 8.4976 20.9967 7.9037V6.5185C20.9967 5.69203 21.2915 5.00787 21.881 4.466C22.4705 3.92417 23.1769 3.65325 24 3.65325C24.8231 3.65325 25.5295 3.92417 26.119 4.466C26.7085 5.00787 27.0033 5.69203 27.0033 6.5185V7.9037C29.783 8.4976 32.0221 9.92192 33.7207 12.1767C35.4192 14.4314 36.2685 16.999 36.2685 19.8794V34.8446H40.5261V38.2631H7.48585ZM24.006 44.2989C22.9118 44.2989 21.9547 43.8979 21.1346 43.0958C20.3144 42.2937 19.9044 41.3296 19.9044 40.2033H28.1076C28.1076 41.3352 27.7051 42.3007 26.9 43.1C26.0949 43.8993 25.1302 44.2989 24.006 44.2989Z" fill="#000"/>
</g>
</svg>
