<svg width="48" height="48" viewBox="0 0 48 48" fill="none" xmlns="http://www.w3.org/2000/svg">
<path d="M1.625 40.4544V35.4315C1.625 34.2066 1.93973 33.0981 2.5692 32.1059C3.19863 31.1137 4.07303 30.3679 5.1924 29.8685C7.64167 28.8018 9.85315 28.0312 11.8268 27.5565C13.8006 27.0819 15.833 26.8446 17.9241 26.8446C20.0305 26.8446 22.0603 27.0799 24.0136 27.5506C25.9669 28.0212 28.1681 28.7938 30.6174 29.8685C31.7346 30.3577 32.6168 31.0987 33.264 32.0915C33.9112 33.0843 34.2348 34.1974 34.2348 35.4309V40.4544H1.625ZM37.3663 40.4544V35.4555C37.3663 33.3395 36.835 31.5906 35.7723 30.2087C34.7096 28.8268 33.3036 27.6754 31.5543 26.7544C33.7906 27.029 35.8995 27.4207 37.881 27.9294C39.8625 28.4381 41.4786 29.0178 42.7294 29.6685C43.8532 30.3018 44.7418 31.1163 45.3951 32.1119C46.0484 33.1074 46.375 34.2341 46.375 35.492V40.4544H37.3663ZM17.9269 23.7946C15.6771 23.7946 13.8402 23.0826 12.4163 21.6587C10.9924 20.2348 10.2804 18.3969 10.2804 16.1451C10.2804 13.8933 10.9926 12.0554 12.4169 10.6315C13.8411 9.20762 15.677 8.49567 17.9245 8.49567C20.1719 8.49567 22.0096 9.20775 23.4375 10.6319C24.8654 12.0561 25.5794 13.8918 25.5794 16.1391C25.5794 18.3949 24.8664 20.2348 23.4405 21.6587C22.0145 23.0826 20.1767 23.7946 17.9269 23.7946ZM36.3663 16.139C36.3663 18.3869 35.6526 20.2248 34.2251 21.6527C32.7976 23.0806 30.9585 23.7946 28.7079 23.7946C28.3328 23.7946 27.9249 23.7676 27.4841 23.7136C27.0433 23.6596 26.6276 23.562 26.237 23.4207C27.0529 22.5714 27.6692 21.529 28.0859 20.2936C28.5026 19.0582 28.7109 17.676 28.7109 16.1469C28.7109 14.6178 28.502 13.2664 28.0841 12.0926C27.6661 10.9188 27.0504 9.84398 26.237 8.86801C26.6116 8.76108 27.0229 8.67228 27.4708 8.60161C27.9187 8.53098 28.3311 8.49567 28.7079 8.49567C30.9556 8.49567 32.7939 9.2097 34.2229 10.6378C35.6518 12.0659 36.3663 13.8996 36.3663 16.139Z" fill="#000"/>
</svg>
