<svg width="64" height="64" viewBox="0 0 64 64" fill="none" xmlns="http://www.w3.org/2000/svg">
<path d="M29.8667 45.6H34.4667V34.5333H45.6V29.9333H34.4667V18.4H29.8667V29.9333H18.4V34.5333H29.8667V45.6ZM31.9963 60.0667C28.1273 60.0667 24.4796 59.3421 21.0533 57.8931C17.6269 56.444 14.6415 54.4473 12.0971 51.9029C9.55267 49.3585 7.55596 46.3717 6.10693 42.9423C4.65787 39.5129 3.93333 35.8574 3.93333 31.9759C3.93333 28.0991 4.65916 24.4561 6.1108 21.0469C7.56249 17.6378 9.567 14.6544 12.1243 12.0967C14.6817 9.53909 17.665 7.528 21.0745 6.06347C24.4839 4.59894 28.1221 3.86667 31.9891 3.86667C35.8721 3.86667 39.5287 4.59684 42.9587 6.0572C46.3887 7.51756 49.3754 9.52327 51.9187 12.0743C54.4621 14.6254 56.467 17.6146 57.9335 21.0419C59.4001 24.4692 60.1333 28.128 60.1333 32.0184C60.1333 35.9059 59.4011 39.5477 57.9365 42.9439C56.472 46.34 54.4609 49.313 51.9033 51.8626C49.3456 54.4122 46.3585 56.417 42.9419 57.8769C39.5253 59.3367 35.8768 60.0667 31.9963 60.0667ZM32.0181 54C38.0733 54 43.2507 51.8581 47.5504 47.5742C51.8501 43.2904 54 38.093 54 31.9819C54 25.9267 51.8594 20.7493 47.5782 16.4496C43.297 12.1499 38.0982 10 31.9819 10C25.9267 10 20.7493 12.1406 16.4496 16.4218C12.1499 20.703 10 25.9018 10 32.0181C10 38.0733 12.1419 43.2507 16.4258 47.5504C20.7096 51.8501 25.907 54 32.0181 54Z" fill="#006B9F"/>
</svg>
