<svg width="48" height="48" viewBox="0 0 48 48" fill="none" xmlns="http://www.w3.org/2000/svg">
<path d="M31.35 33.8L34.35 30.9L26.6 23.1163V13.55H22.65V24.7278L31.35 33.8ZM24.5206 45.05C21.6522 45.05 18.9227 44.5019 16.3322 43.4057C13.7417 42.3095 11.4955 40.8111 9.59365 38.9104C7.69175 37.0098 6.19233 34.765 5.0954 32.1762C3.99846 29.5874 3.45 26.8592 3.45 23.9917C3.45 21.1157 4.0027 18.398 5.1081 15.8388C6.21353 13.2795 7.71645 11.0518 9.61685 9.15545C11.5172 7.25915 13.7586 5.7425 16.3409 4.6055C18.9232 3.4685 21.6475 2.9 24.5138 2.9C27.3921 2.9 30.1099 3.46822 32.6673 4.60465C35.2246 5.74108 37.4512 7.2572 39.347 9.153C41.2428 11.0488 42.7589 13.2758 43.8953 15.8341C45.0318 18.3923 45.6 21.1111 45.6 23.9904C45.6 26.8697 45.0315 29.5966 43.8945 32.171C42.7575 34.7454 41.2408 36.9828 39.3445 38.8832C37.4482 40.7835 35.2228 42.2864 32.6681 43.3918C30.1135 44.4973 27.3976 45.05 24.5206 45.05ZM24.4626 40.5C28.9875 40.5 32.875 38.9019 36.125 35.7058C39.375 32.5096 41 28.62 41 24.0369C41 19.479 39.3812 15.5833 36.1435 12.35C32.9059 9.11667 29.0205 7.5 24.4873 7.5C19.9291 7.5 16.0417 9.11063 12.825 12.3319C9.60833 15.5532 8 19.4469 8 24.0131C8 28.6044 9.60626 32.5 12.8188 35.7C16.0313 38.9 19.9126 40.5 24.4626 40.5Z" fill="#000"/>
</svg>
