<svg width="214" height="32" viewBox="0 0 214 32" fill="none" xmlns="http://www.w3.org/2000/svg">
    <path d="M59.0312 29.4238H55.2324V27.8906H59.0312C59.7669 27.8906 60.3626 27.7734 60.8184 27.5391C61.2741 27.3047 61.6061 26.9792 61.8145 26.5625C62.0293 26.1458 62.1367 25.6706 62.1367 25.1367C62.1367 24.6484 62.0293 24.1895 61.8145 23.7598C61.6061 23.3301 61.2741 22.985 60.8184 22.7246C60.3626 22.4577 59.7669 22.3242 59.0312 22.3242H55.6719V35H53.7871V20.7812H59.0312C60.1055 20.7812 61.0137 20.9668 61.7559 21.3379C62.498 21.709 63.0612 22.2233 63.4453 22.8809C63.8294 23.5319 64.0215 24.2773 64.0215 25.1172C64.0215 26.0286 63.8294 26.8066 63.4453 27.4512C63.0612 28.0957 62.498 28.5872 61.7559 28.9258C61.0137 29.2578 60.1055 29.4238 59.0312 29.4238ZM66.4043 20.7812H71.1113C72.179 20.7812 73.0807 20.944 73.8164 21.2695C74.5586 21.5951 75.1217 22.0768 75.5059 22.7148C75.8965 23.3464 76.0918 24.1243 76.0918 25.0488C76.0918 25.6999 75.9583 26.2956 75.6914 26.8359C75.431 27.3698 75.0534 27.8255 74.5586 28.2031C74.0703 28.5742 73.4844 28.8509 72.8008 29.0332L72.2734 29.2383H67.8496L67.8301 27.7051H71.1699C71.847 27.7051 72.4102 27.5879 72.8594 27.3535C73.3086 27.1126 73.6471 26.7904 73.875 26.3867C74.1029 25.9831 74.2168 25.5371 74.2168 25.0488C74.2168 24.502 74.1094 24.0234 73.8945 23.6133C73.6797 23.2031 73.3411 22.8874 72.8789 22.666C72.4232 22.4382 71.834 22.3242 71.1113 22.3242H68.2891V35H66.4043V20.7812ZM74.7148 35L71.2578 28.5547L73.2207 28.5449L76.7266 34.8828V35H74.7148ZM89.6758 27.4414V28.3398C89.6758 29.4076 89.5423 30.3646 89.2754 31.2109C89.0085 32.0573 88.6243 32.7767 88.123 33.3691C87.6217 33.9616 87.0195 34.4141 86.3164 34.7266C85.6198 35.0391 84.8385 35.1953 83.9727 35.1953C83.1328 35.1953 82.3613 35.0391 81.6582 34.7266C80.9616 34.4141 80.3561 33.9616 79.8418 33.3691C79.334 32.7767 78.9401 32.0573 78.6602 31.2109C78.3802 30.3646 78.2402 29.4076 78.2402 28.3398V27.4414C78.2402 26.3737 78.377 25.4199 78.6504 24.5801C78.9303 23.7337 79.3242 23.0143 79.832 22.4219C80.3398 21.8229 80.9421 21.3672 81.6387 21.0547C82.3418 20.7422 83.1133 20.5859 83.9531 20.5859C84.819 20.5859 85.6003 20.7422 86.2969 21.0547C87 21.3672 87.6022 21.8229 88.1035 22.4219C88.6113 23.0143 88.9987 23.7337 89.2656 24.5801C89.5391 25.4199 89.6758 26.3737 89.6758 27.4414ZM87.8105 28.3398V27.4219C87.8105 26.5755 87.7227 25.8268 87.5469 25.1758C87.3776 24.5247 87.127 23.9779 86.7949 23.5352C86.4629 23.0924 86.056 22.7572 85.5742 22.5293C85.099 22.3014 84.5586 22.1875 83.9531 22.1875C83.3672 22.1875 82.8366 22.3014 82.3613 22.5293C81.8926 22.7572 81.4889 23.0924 81.1504 23.5352C80.8184 23.9779 80.5612 24.5247 80.3789 25.1758C80.1966 25.8268 80.1055 26.5755 80.1055 27.4219V28.3398C80.1055 29.1927 80.1966 29.9479 80.3789 30.6055C80.5612 31.2565 80.8216 31.8066 81.1602 32.2559C81.5052 32.6986 81.9121 33.0339 82.3809 33.2617C82.8561 33.4896 83.3867 33.6035 83.9727 33.6035C84.5846 33.6035 85.1283 33.4896 85.6035 33.2617C86.0788 33.0339 86.4792 32.6986 86.8047 32.2559C87.1367 31.8066 87.3874 31.2565 87.5566 30.6055C87.7259 29.9479 87.8105 29.1927 87.8105 28.3398ZM102.723 22.041L98.0156 35H96.0918L101.512 20.7812H102.752L102.723 22.041ZM106.668 35L101.951 22.041L101.922 20.7812H103.162L108.602 35H106.668ZM106.424 29.7363V31.2793H98.4355V29.7363H106.424ZM118.084 31.4062C118.084 31.0742 118.032 30.7812 117.928 30.5273C117.83 30.2669 117.654 30.0326 117.4 29.8242C117.153 29.6159 116.808 29.4173 116.365 29.2285C115.929 29.0397 115.376 28.8477 114.705 28.6523C114.002 28.444 113.367 28.2129 112.801 27.959C112.234 27.6986 111.749 27.4023 111.346 27.0703C110.942 26.7383 110.633 26.3574 110.418 25.9277C110.203 25.498 110.096 25.0065 110.096 24.4531C110.096 23.8997 110.21 23.3887 110.438 22.9199C110.665 22.4512 110.991 22.0443 111.414 21.6992C111.844 21.3477 112.355 21.0742 112.947 20.8789C113.54 20.6836 114.201 20.5859 114.93 20.5859C115.997 20.5859 116.902 20.791 117.645 21.2012C118.393 21.6048 118.963 22.1354 119.354 22.793C119.744 23.444 119.939 24.1406 119.939 24.8828H118.064C118.064 24.349 117.951 23.877 117.723 23.4668C117.495 23.0501 117.15 22.7246 116.688 22.4902C116.225 22.2493 115.639 22.1289 114.93 22.1289C114.259 22.1289 113.706 22.2298 113.27 22.4316C112.833 22.6335 112.508 22.9069 112.293 23.252C112.085 23.597 111.98 23.9909 111.98 24.4336C111.98 24.7331 112.042 25.0065 112.166 25.2539C112.296 25.4948 112.495 25.7194 112.762 25.9277C113.035 26.1361 113.38 26.3281 113.797 26.5039C114.22 26.6797 114.725 26.849 115.311 27.0117C116.118 27.2396 116.814 27.4935 117.4 27.7734C117.986 28.0534 118.468 28.3691 118.846 28.7207C119.23 29.0658 119.513 29.4596 119.695 29.9023C119.884 30.3385 119.979 30.8333 119.979 31.3867C119.979 31.9661 119.861 32.4902 119.627 32.959C119.393 33.4277 119.057 33.8281 118.621 34.1602C118.185 34.4922 117.661 34.7493 117.049 34.9316C116.443 35.1074 115.766 35.1953 115.018 35.1953C114.36 35.1953 113.712 35.1042 113.074 34.9219C112.443 34.7396 111.867 34.4661 111.346 34.1016C110.831 33.737 110.418 33.2878 110.105 32.7539C109.799 32.2135 109.646 31.5885 109.646 30.8789H111.521C111.521 31.3672 111.616 31.7871 111.805 32.1387C111.993 32.4837 112.251 32.7702 112.576 32.998C112.908 33.2259 113.283 33.3952 113.699 33.5059C114.122 33.61 114.562 33.6621 115.018 33.6621C115.675 33.6621 116.232 33.571 116.688 33.3887C117.143 33.2064 117.488 32.946 117.723 32.6074C117.964 32.2689 118.084 31.8685 118.084 31.4062ZM129.959 31.4062C129.959 31.0742 129.907 30.7812 129.803 30.5273C129.705 30.2669 129.529 30.0326 129.275 29.8242C129.028 29.6159 128.683 29.4173 128.24 29.2285C127.804 29.0397 127.251 28.8477 126.58 28.6523C125.877 28.444 125.242 28.2129 124.676 27.959C124.109 27.6986 123.624 27.4023 123.221 27.0703C122.817 26.7383 122.508 26.3574 122.293 25.9277C122.078 25.498 121.971 25.0065 121.971 24.4531C121.971 23.8997 122.085 23.3887 122.312 22.9199C122.54 22.4512 122.866 22.0443 123.289 21.6992C123.719 21.3477 124.23 21.0742 124.822 20.8789C125.415 20.6836 126.076 20.5859 126.805 20.5859C127.872 20.5859 128.777 20.791 129.52 21.2012C130.268 21.6048 130.838 22.1354 131.229 22.793C131.619 23.444 131.814 24.1406 131.814 24.8828H129.939C129.939 24.349 129.826 23.877 129.598 23.4668C129.37 23.0501 129.025 22.7246 128.562 22.4902C128.1 22.2493 127.514 22.1289 126.805 22.1289C126.134 22.1289 125.581 22.2298 125.145 22.4316C124.708 22.6335 124.383 22.9069 124.168 23.252C123.96 23.597 123.855 23.9909 123.855 24.4336C123.855 24.7331 123.917 25.0065 124.041 25.2539C124.171 25.4948 124.37 25.7194 124.637 25.9277C124.91 26.1361 125.255 26.3281 125.672 26.5039C126.095 26.6797 126.6 26.849 127.186 27.0117C127.993 27.2396 128.689 27.4935 129.275 27.7734C129.861 28.0534 130.343 28.3691 130.721 28.7207C131.105 29.0658 131.388 29.4596 131.57 29.9023C131.759 30.3385 131.854 30.8333 131.854 31.3867C131.854 31.9661 131.736 32.4902 131.502 32.959C131.268 33.4277 130.932 33.8281 130.496 34.1602C130.06 34.4922 129.536 34.7493 128.924 34.9316C128.318 35.1074 127.641 35.1953 126.893 35.1953C126.235 35.1953 125.587 35.1042 124.949 34.9219C124.318 34.7396 123.742 34.4661 123.221 34.1016C122.706 33.737 122.293 33.2878 121.98 32.7539C121.674 32.2135 121.521 31.5885 121.521 30.8789H123.396C123.396 31.3672 123.491 31.7871 123.68 32.1387C123.868 32.4837 124.126 32.7702 124.451 32.998C124.783 33.2259 125.158 33.3952 125.574 33.5059C125.997 33.61 126.437 33.6621 126.893 33.6621C127.55 33.6621 128.107 33.571 128.562 33.3887C129.018 33.2064 129.363 32.946 129.598 32.6074C129.839 32.2689 129.959 31.8685 129.959 31.4062ZM136.277 20.7812V35H134.393V20.7812H136.277ZM147.283 31.4062C147.283 31.0742 147.231 30.7812 147.127 30.5273C147.029 30.2669 146.854 30.0326 146.6 29.8242C146.352 29.6159 146.007 29.4173 145.564 29.2285C145.128 29.0397 144.575 28.8477 143.904 28.6523C143.201 28.444 142.566 28.2129 142 27.959C141.434 27.6986 140.949 27.4023 140.545 27.0703C140.141 26.7383 139.832 26.3574 139.617 25.9277C139.402 25.498 139.295 25.0065 139.295 24.4531C139.295 23.8997 139.409 23.3887 139.637 22.9199C139.865 22.4512 140.19 22.0443 140.613 21.6992C141.043 21.3477 141.554 21.0742 142.146 20.8789C142.739 20.6836 143.4 20.5859 144.129 20.5859C145.197 20.5859 146.102 20.791 146.844 21.2012C147.592 21.6048 148.162 22.1354 148.553 22.793C148.943 23.444 149.139 24.1406 149.139 24.8828H147.264C147.264 24.349 147.15 23.877 146.922 23.4668C146.694 23.0501 146.349 22.7246 145.887 22.4902C145.424 22.2493 144.839 22.1289 144.129 22.1289C143.458 22.1289 142.905 22.2298 142.469 22.4316C142.033 22.6335 141.707 22.9069 141.492 23.252C141.284 23.597 141.18 23.9909 141.18 24.4336C141.18 24.7331 141.242 25.0065 141.365 25.2539C141.495 25.4948 141.694 25.7194 141.961 25.9277C142.234 26.1361 142.579 26.3281 142.996 26.5039C143.419 26.6797 143.924 26.849 144.51 27.0117C145.317 27.2396 146.014 27.4935 146.6 27.7734C147.186 28.0534 147.667 28.3691 148.045 28.7207C148.429 29.0658 148.712 29.4596 148.895 29.9023C149.083 30.3385 149.178 30.8333 149.178 31.3867C149.178 31.9661 149.061 32.4902 148.826 32.959C148.592 33.4277 148.257 33.8281 147.82 34.1602C147.384 34.4922 146.86 34.7493 146.248 34.9316C145.643 35.1074 144.965 35.1953 144.217 35.1953C143.559 35.1953 142.911 35.1042 142.273 34.9219C141.642 34.7396 141.066 34.4661 140.545 34.1016C140.031 33.737 139.617 33.2878 139.305 32.7539C138.999 32.2135 138.846 31.5885 138.846 30.8789H140.721C140.721 31.3672 140.815 31.7871 141.004 32.1387C141.193 32.4837 141.45 32.7702 141.775 32.998C142.107 33.2259 142.482 33.3952 142.898 33.5059C143.322 33.61 143.761 33.6621 144.217 33.6621C144.874 33.6621 145.431 33.571 145.887 33.3887C146.342 33.2064 146.688 32.946 146.922 32.6074C147.163 32.2689 147.283 31.8685 147.283 31.4062ZM156.834 20.7812V35H154.979V20.7812H156.834ZM161.404 20.7812V22.3242H150.418V20.7812H161.404Z" fill="#000"/>
</svg>
