<svg width="40" height="40" viewBox="0 0 40 40" fill="none" xmlns="http://www.w3.org/2000/svg">
<mask id="mask0_319_821" style="mask-type:alpha" maskUnits="userSpaceOnUse" x="0" y="0" width="40" height="40">
<rect width="40" height="40" fill="#D9D9D9"/>
</mask>
<g mask="url(#mask0_319_821)">
<path d="M4.70834 16.5245C4.70834 14.2204 5.18887 12.0368 6.14993 9.9735C7.11095 7.91025 8.48308 6.14704 10.2663 4.68387L12.1241 6.71829C10.6386 7.93268 9.48612 9.39357 8.66668 11.101C7.84723 12.8084 7.43751 14.6162 7.43751 16.5245H4.70834ZM32.6042 16.5245C32.6042 14.6156 32.2153 12.8077 31.4375 11.1005C30.6597 9.39343 29.5281 7.93268 28.0426 6.71829L29.9004 4.68387C31.6625 6.16818 33.0085 7.93587 33.9384 9.98696C34.8684 12.038 35.3333 14.2172 35.3333 16.5245H32.6042ZM6.23822 31.8859V29.0371H9.82789V16.5661C9.82789 14.1724 10.5287 12.0345 11.9303 10.1522C13.3318 8.26993 15.1875 7.08133 17.4973 6.58641V5.43208C17.4973 4.74336 17.7429 4.17322 18.2342 3.72166C18.7255 3.27014 19.3141 3.04437 20 3.04437C20.686 3.04437 21.2746 3.27014 21.7658 3.72166C22.2571 4.17322 22.5027 4.74336 22.5027 5.43208V6.58641C24.8192 7.08133 26.6851 8.26826 28.1006 10.1472C29.516 12.0262 30.2238 14.1658 30.2238 16.5661V29.0371H33.7718V31.8859H6.23822ZM20.005 36.9158C19.0932 36.9158 18.2956 36.5816 17.6121 35.9132C16.9287 35.2448 16.587 34.4413 16.587 33.5027H23.423C23.423 34.446 23.0876 35.2506 22.4166 35.9167C21.7457 36.5827 20.9418 36.9158 20.005 36.9158ZM12.6667 29.0371H27.375V16.5661C27.375 14.5105 26.6667 12.7605 25.25 11.3161C23.8333 9.87164 22.0972 9.14941 20.0417 9.14941C17.9861 9.14941 16.2431 9.87164 14.8125 11.3161C13.382 12.7605 12.6667 14.5105 12.6667 16.5661V29.0371Z" fill="#000"/>
</g>
</svg>
