<svg width="48" height="48" viewBox="0 0 48 48" fill="none" xmlns="http://www.w3.org/2000/svg">
<path d="M32.638 27.2C33.4634 27.2 34.2031 26.875 34.857 26.225C35.511 25.575 35.838 24.8167 35.838 23.95C35.838 23.1167 35.511 22.3833 34.857 21.75C34.2031 21.1167 33.4634 20.8 32.638 20.8C31.8047 20.8 31.063 21.1167 30.413 21.75C29.763 22.3833 29.438 23.1167 29.438 23.95C29.438 24.8167 29.763 25.575 30.413 26.225C31.063 26.875 31.8047 27.2 32.638 27.2ZM26.6815 33.8467C25.5151 33.8467 24.5668 33.4901 23.8366 32.7768C23.1064 32.0636 22.7413 31.1369 22.7413 29.9968V18.0621C22.7413 16.8975 23.1064 15.9632 23.8366 15.2592C24.5668 14.5552 25.5151 14.2032 26.6815 14.2032H40.9935C42.152 14.2032 43.0963 14.5552 43.8265 15.2592C44.5566 15.9632 44.9217 16.8975 44.9217 18.0621V29.9968C44.9217 31.1369 44.5566 32.0636 43.8265 32.7768C43.0963 33.4901 42.152 33.8467 40.9935 33.8467H26.6815ZM9.00545 42.8598C7.99585 42.8598 7.09925 42.471 6.31565 41.6934C5.53201 40.9158 5.1402 40.0162 5.1402 38.9945V9.00544C5.1402 7.99257 5.53201 7.09315 6.31565 6.30718C7.09925 5.52122 7.99585 5.12823 9.00545 5.12823H38.9945C40.0195 5.12823 40.922 5.52122 41.7019 6.30718C42.4818 7.09315 42.8717 7.99257 42.8717 9.00544V11.7054H26.6815C24.8735 11.7054 23.3465 12.312 22.1005 13.5251C20.8545 14.7383 20.2315 16.2444 20.2315 18.0435V30.0185C20.2315 31.8265 20.8545 33.3328 22.1005 34.5375C23.3465 35.7422 24.8735 36.3445 26.6815 36.3445H42.8717V38.9945C42.8717 40.025 42.4818 40.9268 41.7019 41.7C40.922 42.4732 40.0195 42.8598 38.9945 42.8598H9.00545Z" fill="#000"/>
</svg>
