<svg width="49" height="48" viewBox="0 0 49 48" fill="none" xmlns="http://www.w3.org/2000/svg">
<path d="M17.4 33.5L24.5 26.4L31.6 33.5L34 31.1L26.9 24L34 16.9L31.6 14.5L24.5 21.6L17.4 14.5L15 16.9L22.1 24L15 31.1L17.4 33.5ZM24.4839 45.05C21.6066 45.05 18.8792 44.5066 16.3016 43.4198C13.724 42.333 11.4811 40.8355 9.5728 38.9272C7.6645 37.0189 6.16696 34.7761 5.0802 32.1987C3.9934 29.6214 3.45 26.8908 3.45 24.0069C3.45 21.0932 3.99436 18.3553 5.0831 15.7931C6.17186 13.231 7.67525 10.9908 9.59325 9.07254C11.5112 7.15431 13.7514 5.646 16.3138 4.5476C18.8762 3.4492 21.5938 2.89999 24.4668 2.89999C27.3851 2.89999 30.1332 3.44763 32.711 4.54289C35.2888 5.63816 37.5315 7.14244 39.439 9.05574C41.3465 10.969 42.8502 13.2109 43.9501 15.7814C45.05 18.3519 45.6 21.1005 45.6 24.0271C45.6 26.9182 45.0508 29.6413 43.9524 32.1962C42.854 34.7511 41.3457 36.9878 39.4274 38.9062C37.5092 40.8246 35.2689 42.3281 32.7064 43.4169C30.144 44.5056 27.4031 45.05 24.4839 45.05ZM24.4885 40.5C29.0466 40.5 32.938 38.8935 36.1628 35.6806C39.3876 32.4678 41 28.578 41 24.0114C41 19.4534 39.3914 15.562 36.1742 12.3372C32.9571 9.11239 29.0612 7.49999 24.4864 7.49999C19.945 7.49999 16.062 9.10858 12.8372 12.3257C9.6124 15.5429 8 19.4388 8 24.0135C8 28.5549 9.60645 32.438 12.8193 35.6628C16.0322 38.8876 19.9219 40.5 24.4885 40.5Z" fill="#000"/>
</svg>
