<svg width="48" height="48" viewBox="0 0 48 48" fill="none" xmlns="http://www.w3.org/2000/svg">
<path d="M22 40.7195C21.2855 40.7195 20.6643 40.4619 20.1364 39.9467C19.6085 39.4315 19.3445 38.8166 19.3445 38.1021V26.2478L7.4663 11.0315C6.86777 10.2757 6.78045 9.45961 7.20435 8.58315C7.62825 7.70671 8.32608 7.26849 9.29785 7.26849H38.7021C39.6739 7.26849 40.3717 7.70671 40.7956 8.58315C41.2195 9.45961 41.1362 10.2757 40.5456 11.0315L28.6674 26.2478V38.3119C28.6674 39.0105 28.4324 39.5864 27.9625 40.0397C27.4926 40.4929 26.9043 40.7195 26.1978 40.7195H22Z" fill="#000"/>
</svg>
