<svg width="48" height="48" viewBox="0 0 48 48" fill="none" xmlns="http://www.w3.org/2000/svg">
<path d="M10.9435 34.9663C13.0449 33.6235 15.1448 32.6165 17.243 31.9451C19.3413 31.2737 21.5943 30.938 24.0022 30.938C26.4102 30.938 28.6685 31.2777 30.7771 31.9571C32.8858 32.6364 35.0123 33.6395 37.1565 34.9663C38.5739 33.1156 39.5679 31.317 40.1386 29.5706C40.7092 27.8242 40.9945 25.9674 40.9945 24C40.9945 19.1792 39.3675 15.1416 36.1135 11.8871C32.8595 8.63267 28.8223 7.00545 24.0021 7.00545C19.1819 7.00545 15.144 8.63267 11.8886 11.8871C8.63316 15.1416 7.00545 19.1792 7.00545 24C7.00545 25.9746 7.29721 27.8322 7.88075 29.5727C8.46431 31.3132 9.48523 33.1111 10.9435 34.9663ZM23.9927 26.0044C21.9282 26.0044 20.1896 25.2952 18.7768 23.877C17.364 22.4587 16.6576 20.7199 16.6576 18.6607C16.6576 16.6014 17.3664 14.8631 18.784 13.4457C20.2017 12.0283 21.9428 11.3195 24.0073 11.3195C26.0718 11.3195 27.8104 12.0307 29.2232 13.453C30.636 14.8752 31.3424 16.6159 31.3424 18.6752C31.3424 20.7345 30.6336 22.4708 29.2159 23.8843C27.7983 25.2976 26.0572 26.0044 23.9927 26.0044ZM23.9717 44.8598C21.1309 44.8598 18.4365 44.3111 15.8885 43.2137C13.3406 42.1163 11.1202 40.6121 9.2273 38.7011C7.33436 36.7901 5.84661 34.5776 4.76405 32.0636C3.68148 29.5495 3.1402 26.8538 3.1402 23.9763C3.1402 21.1068 3.6937 18.4103 4.8007 15.8868C5.90773 13.3633 7.41115 11.1541 9.31095 9.25905C11.2107 7.36405 13.4185 5.8685 15.9342 4.7724C18.45 3.6763 21.1469 3.12825 24.025 3.12825C26.8951 3.12825 29.5895 3.68425 32.1083 4.79625C34.6271 5.90822 36.8286 7.40718 38.7127 9.29315C40.5969 11.1791 42.0944 13.3841 43.2053 15.9079C44.3163 18.4318 44.8717 21.1247 44.8717 23.9867C44.8717 26.8619 44.3237 29.5562 43.2276 32.0695C42.1315 34.5828 40.6348 36.7893 38.7375 38.6891C36.8402 40.5889 34.6252 42.0923 32.0924 43.1992C29.5596 44.3063 26.8527 44.8598 23.9717 44.8598Z" fill="#000"/>
</svg>
